<svg xmlns="http://www.w3.org/2000/svg" viewBox="0 0 1000 1000"><g id="Layer_2" data-name="Layer 2"><g id="Layer_1-2" data-name="Layer 1"><path d="M500,0C223.86,0,0,223.86,0,500A498.29,498.29,0,0,0,135.35,842.09v-.35h32.54c30.16,0,41.27-11.11,41.27-37.3V302.87H344.87v500c0,77.64-29.27,120.59-76.58,140.33A497.83,497.83,0,0,0,500,1000c276.14,0,500-223.86,500-500S776.14,0,500,0ZM276.62,256.84c-48.41,0-81-32.54-81-73,0-41.26,32.54-73.8,81-73.8,47.61,0,80.15,32.54,80.15,73.8C356.77,224.3,324.23,256.84,276.62,256.84ZM713.1,745.71,578.19,560V745.71H442.48V158.43H578.19V483L712.31,302.87H879.76L695.64,525.08,881.35,745.71Z" fill="#cc471c"/></g></g></svg>